# xmcd
#
# Track frame offsets:
#	150
#	11676
#	24750
#	39444
#	53914
#	72611
#	86473
#	106371
#	122925
#	140173
#	151810
#
# Disc length: 2149 seconds
#
# Revision: 1
# Processed by: cddbd v1.5.1PL0 Copyright (c) Steve Scherf et al.
# Submitted via: EasyCDDAExtractor 7.0.3.1
#
DISCID=8f08630b
DTITLE=Harvest - John 4:35
DYEAR=2004
DGENRE=Bluegrass Gospel
TTITLE0=As Far As I Can See
TTITLE1=Grace For Today
TTITLE2=Holy Manna
TTITLE3=God Knows
TTITLE4=Nailed To The Cross
TTITLE5=He Wouldn't Stay Dead
TTITLE6=Call On Jesus
TTITLE7=Hold To God's Unchanging Hand
TTITLE8=The Touch
TTITLE9=God Forgive Me
TTITLE10=With You All The Time
EXTD=
EXTT0=
EXTT1=
EXTT2=
EXTT3=
EXTT4=
EXTT5=
EXTT6=
EXTT7=
EXTT8=
EXTT9=
EXTT10=
PLAYORDER=
